# xmcd
#
# Track frame offsets: 
#        150
#        26056
#        42460
#        65992
#        88513
#        115110
#        132523
#        163904
#        185438
#        195160
#        231013
#
# Disc length: 3373 seconds
#
# Revision: 0
# Processed by: cddbd v1.5.1PL0 Copyright (c) Steve Scherf et al.
# Submitted via: ExactAudioCopy v0.95a5
#
DISCID=980d2b0b
DTITLE=Jorma Kaukonen and Jack Cassidy - 2000-11-30 Paradise Lounge Bost
DTITLE=on, MA
DYEAR=2000
DGENRE=Blues
TTITLE0=Intro, True Religion
TTITLE1=How Long Blues
TTITLE2=Uncle Sam's Blues
TTITLE3=Terrable Operation
TTITLE4=Death Don't Have No Mercy
TTITLE5=Do Not Go Gentle
TTITLE6=I See The Light
TTITLE7=Living In The Moment
TTITLE8=Embryonic Journey
TTITLE9=Good Shepherd
TTITLE10=Watch The North Wind Rise
EXTD=
EXTT0=
EXTT1=
EXTT2=
EXTT3=
EXTT4=
EXTT5=
EXTT6=
EXTT7=
EXTT8=
EXTT9=
EXTT10=
PLAYORDER=
